<svg xmlns="http://www.w3.org/2000/svg" viewBox="0 0 128 128">
  <rect x="0" y="0" width="128" height="128" fill="#2E3440" rx="19" />
  <g transform="scale(1.28)">
    <!-- Sleek Arcade Matrix Dots -->
    <circle cx="20" cy="20" r="1" fill="#434C5E" />
    <circle cx="40" cy="20" r="1" fill="#434C5E" />
    <circle cx="60" cy="20" r="1" fill="#434C5E" />
    <circle cx="80" cy="20" r="1" fill="#434C5E" />
    <circle cx="20" cy="40" r="1" fill="#434C5E" />
    <circle cx="40" cy="40" r="1" fill="#434C5E" />
    <circle cx="60" cy="40" r="1" fill="#434C5E" />
    <circle cx="80" cy="40" r="1" fill="#434C5E" />
    <circle cx="20" cy="60" r="1" fill="#434C5E" />
    <circle cx="40" cy="60" r="1" fill="#434C5E" />
    <circle cx="60" cy="60" r="1" fill="#434C5E" />
    <circle cx="80" cy="60" r="1" fill="#434C5E" />

    <!-- Aliens -->
    <!-- Alien 1 -->
    <circle cx="30" cy="25" r="6" fill="#BF616A" />
    <rect x="27.5" y="23.5" width="1.5" height="1.5" fill="#ECEFF4" />
    <rect x="31" y="23.5" width="1.5" height="1.5" fill="#ECEFF4" />

    <!-- Alien 2 -->
    <circle cx="70" cy="25" r="6" fill="#BF616A" />
    <rect x="67.5" y="23.5" width="1.5" height="1.5" fill="#ECEFF4" />
    <rect x="71" y="23.5" width="1.5" height="1.5" fill="#ECEFF4" />

    <!-- Diving Alien -->
    <circle cx="50" cy="35" r="8" stroke="#D08770" stroke-width="1" fill="none" />
    <circle cx="50" cy="35" r="5" fill="#D08770" />
    <rect x="47.5" y="33.5" width="1.2" height="1.2" fill="#ECEFF4" />
    <rect x="51.3" y="33.5" width="1.2" height="1.2" fill="#ECEFF4" />

    <!-- Laser -->
    <rect x="49" y="44" width="2" height="12" fill="#EBCB8B" />

    <!-- Player Spaceship -->
    <path d="M 50,66 L 62,82 L 38,82 Z" fill="#A3BE8C" />
    <rect x="46" y="82" width="8" height="3" fill="#D08770" />
  </g>
</svg>
